<svg width="113" height="44" viewBox="0 0 113 44" fill="none" xmlns="http://www.w3.org/2000/svg">
<path d="M44 22C44 34.1503 34.1503 44 22 44C9.84974 44 0 34.1503 0 22C0 9.84974 9.84974 0 22 0C34.1503 0 44 9.84974 44 22Z" fill="#268700"/>
<path fill-rule="evenodd" clip-rule="evenodd" d="M10.4244 17.0091C10.5748 10.7872 15.6997 5.78955 21.9998 5.78955C28.3949 5.78955 33.5789 10.9385 33.5789 17.2904C33.5789 23.6419 28.3949 28.7909 21.9998 28.7909C20.124 28.7909 18.3523 28.3478 16.7852 27.5613V38.2106C12.0903 38.0297 10.5254 31.9264 10.4211 28.1764V17.2904V17.0044L10.4244 17.0091ZM14.9265 17.2904C14.9265 21.1707 18.0935 24.3159 21.9998 24.3159C25.9065 24.3159 29.0732 21.1703 29.0732 17.2904C29.0732 13.4097 25.9065 10.2649 21.9998 10.2649C18.0931 10.2649 14.9265 13.4101 14.9265 17.2904Z" fill="white"/>
<path d="M101.403 22.5951C101.696 22.7861 102.014 22.9548 102.358 23.1012C102.701 23.2476 103.058 23.3685 103.427 23.464C103.803 23.5595 104.185 23.6295 104.573 23.6741C104.961 23.725 105.346 23.7505 105.728 23.7505C107.027 23.7505 108.026 23.4704 108.726 22.9102C109.433 22.3564 109.786 21.5225 109.786 20.4085V20.0265C109.538 20.1984 109.258 20.3575 108.946 20.504C108.641 20.644 108.31 20.765 107.953 20.8668C107.603 20.9687 107.231 21.0482 106.836 21.1055C106.448 21.1564 106.053 21.1819 105.652 21.1819C104.792 21.1819 104.022 21.0578 103.341 20.8095C102.666 20.5549 102.093 20.1857 101.622 19.7019C101.158 19.2117 100.801 18.6102 100.553 17.8972C100.305 17.1842 100.18 16.3694 100.18 15.4527V9.91455H102.997V14.6698C102.997 16.032 103.255 17.0378 103.771 17.6871C104.293 18.3301 105.114 18.6515 106.234 18.6515C107.024 18.6515 107.721 18.5147 108.325 18.2409C108.937 17.9608 109.424 17.6044 109.786 17.1715V9.91455H112.613V19.8928C112.613 20.9687 112.46 21.9012 112.154 22.6906C111.849 23.4863 111.403 24.1452 110.818 24.6672C110.238 25.1891 109.525 25.5775 108.679 25.8321C107.832 26.0931 106.871 26.2236 105.795 26.2236C104.745 26.2236 103.764 26.1122 102.854 25.8894C101.944 25.6666 101.11 25.3642 100.352 24.9823L101.403 22.5951Z" fill="#111111"/>
<path d="M92.9738 12.0377H90.2524V9.91791H92.9738V6.41357H95.8002V9.91791H98.5215V12.0377H95.8002V21.1853H92.9738V12.0377Z" fill="#111111"/>
<path d="M82.4366 9.91482H85.263V11.5381C85.8869 11.0734 86.5457 10.6723 87.2396 10.335C87.9335 9.99758 88.6241 9.73976 89.3116 9.56152L90.1424 12.1492C89.0538 12.2574 88.0958 12.5025 87.2682 12.8844C86.4471 13.26 85.7787 13.7916 85.263 14.4791V21.1822H82.4366V9.91482Z" fill="#111111"/>
<path d="M66.6287 17.6311C66.6287 17.09 66.7464 16.5967 66.982 16.1511C67.2175 15.7055 67.5708 15.3235 68.0419 15.0053C68.5129 14.6806 69.0986 14.4323 69.7988 14.2605C70.5054 14.0822 71.3266 13.9931 72.2623 13.9931C72.9562 13.9931 73.6851 14.044 74.449 14.1459C75.2192 14.2477 76.0118 14.4037 76.8266 14.6138C76.7948 14.2573 76.6865 13.9295 76.5019 13.6303C76.3173 13.3247 76.0595 13.0637 75.7285 12.8473C75.4038 12.6245 75.0092 12.4526 74.5445 12.3317C74.0861 12.2107 73.5641 12.1502 72.9785 12.1502C72.6602 12.1502 72.3101 12.1693 71.9281 12.2075C71.5462 12.2457 71.1515 12.303 70.7441 12.3794C70.3367 12.4558 69.9325 12.5513 69.5314 12.6659C69.1368 12.7804 68.7676 12.9173 68.4238 13.0764L67.5644 10.7561C67.9909 10.6034 68.4461 10.4633 68.9299 10.336C69.42 10.2087 69.9197 10.1005 70.429 10.0113C70.9383 9.91585 71.4475 9.84265 71.9568 9.79172C72.466 9.74079 72.9594 9.71533 73.4368 9.71533C75.5439 9.71533 77.1099 10.2532 78.1347 11.329C79.1596 12.4049 79.6721 14.0536 79.6721 16.2752V21.1832H76.8457V20.1233C76.5529 20.2952 76.2314 20.4575 75.8813 20.6103C75.5375 20.7631 75.1619 20.8968 74.7545 21.0113C74.3471 21.1259 73.9079 21.215 73.4368 21.2787C72.9721 21.3487 72.4788 21.3837 71.9568 21.3837C71.0783 21.3837 70.3049 21.2882 69.6365 21.0973C68.9744 20.9063 68.4206 20.6421 67.975 20.3047C67.5294 19.9674 67.192 19.5727 66.9629 19.1207C66.7401 18.6624 66.6287 18.1659 66.6287 17.6311ZM69.6078 17.5356C69.6078 17.7203 69.6556 17.8985 69.7511 18.0704C69.8465 18.2359 69.9993 18.3855 70.2094 18.5192C70.4195 18.6465 70.6868 18.7515 71.0115 18.8343C71.3425 18.9106 71.7404 18.9488 72.2051 18.9488C72.7016 18.9488 73.1822 18.9043 73.6469 18.8152C74.1116 18.726 74.5445 18.6083 74.9455 18.4619C75.3465 18.3154 75.7094 18.1468 76.034 17.9558C76.3587 17.7648 76.6292 17.5675 76.8457 17.3638V16.8672C76.4128 16.7463 75.9831 16.6444 75.5566 16.5617C75.1365 16.4789 74.7323 16.4153 74.3439 16.3707C73.962 16.3198 73.5991 16.2848 73.2554 16.2657C72.918 16.2466 72.622 16.237 72.3674 16.237C71.839 16.237 71.3998 16.272 71.0497 16.3421C70.6996 16.4121 70.4163 16.5076 70.1998 16.6285C69.9834 16.7431 69.8306 16.88 69.7415 17.0391C69.6524 17.1983 69.6078 17.3638 69.6078 17.5356Z" fill="#111111"/>
<path d="M50.5991 6.25977H58.4671C59.613 6.25977 60.606 6.3839 61.4463 6.63216C62.2866 6.88043 62.9836 7.24009 63.5375 7.71115C64.0913 8.17585 64.5019 8.74559 64.7692 9.42036C65.043 10.0951 65.1798 10.8558 65.1798 11.7025C65.1798 12.4982 65.0461 13.2334 64.7788 13.9082C64.5114 14.583 64.1008 15.1686 63.547 15.6651C62.9996 16.1553 62.3057 16.5404 61.4654 16.8205C60.6251 17.0943 59.6321 17.2311 58.4862 17.2311L53.626 17.2216V21.1842H50.5991V6.25977ZM58.5435 14.6053C59.1165 14.6053 59.6162 14.5384 60.0427 14.4047C60.4755 14.2647 60.8352 14.0705 61.1217 13.8223C61.4145 13.5676 61.6309 13.2621 61.771 12.9056C61.9174 12.5428 61.9906 12.1417 61.9906 11.7025C61.9906 10.8176 61.7009 10.1301 61.1217 9.63997C60.5487 9.14345 59.6894 8.89518 58.5435 8.89518H53.626V14.6053H58.5435Z" fill="#111111"/>
<path d="M79.9987 31.4862C79.9987 30.5886 80.1674 29.7801 80.5048 29.0608C80.8422 28.3351 81.3069 27.7176 81.8989 27.2084C82.4973 26.6928 83.2039 26.2981 84.0187 26.0244C84.8399 25.7443 85.7279 25.6042 86.6828 25.6042C87.0902 25.6042 87.4912 25.6297 87.8859 25.6806C88.2869 25.7315 88.6689 25.8016 89.0317 25.8907C89.4009 25.9798 89.7447 26.088 90.063 26.2153C90.3876 26.3363 90.6741 26.47 90.9224 26.6164V21.231H93.7487V37.0721H90.9224V36.0122C90.6741 36.1841 90.3813 36.3464 90.0439 36.4992C89.7065 36.652 89.3437 36.7856 88.9553 36.9002C88.567 37.0148 88.1628 37.1039 87.7427 37.1676C87.3289 37.2376 86.9183 37.2726 86.5109 37.2726C85.556 37.2726 84.6776 37.1326 83.8755 36.8525C83.0798 36.5724 82.3955 36.1777 81.8225 35.6685C81.2496 35.1592 80.8008 34.5513 80.4762 33.8447C80.1579 33.1317 79.9987 32.3455 79.9987 31.4862ZM82.9684 31.4862C82.9684 31.9381 83.0575 32.3646 83.2357 32.7657C83.4203 33.1667 83.6813 33.52 84.0187 33.8256C84.3625 34.1248 84.7731 34.3635 85.2505 34.5417C85.7343 34.7136 86.2754 34.7995 86.8737 34.7995C87.2557 34.7995 87.6376 34.7645 88.0196 34.6945C88.4015 34.6181 88.7676 34.5131 89.1177 34.3794C89.4742 34.2457 89.8052 34.0834 90.1107 33.8924C90.4226 33.7014 90.6932 33.4882 90.9224 33.2527V29.3473C90.6359 29.1181 90.3335 28.924 90.0152 28.7648C89.697 28.6057 89.3723 28.4752 89.0413 28.3733C88.7103 28.2715 88.3761 28.1983 88.0387 28.1537C87.7013 28.1028 87.3735 28.0773 87.0552 28.0773C86.4059 28.0773 85.8266 28.1664 85.3173 28.3447C84.8144 28.5165 84.3879 28.7553 84.0378 29.0608C83.6941 29.3664 83.4299 29.726 83.2453 30.1398C83.0607 30.5536 82.9684 31.0024 82.9684 31.4862Z" fill="#111111"/>
<path d="M65.5386 25.7949H68.3555V31.2949C68.3555 31.8169 68.4128 32.2943 68.5274 32.7272C68.6419 33.1537 68.8361 33.5197 69.1098 33.8253C69.3899 34.1309 69.7591 34.3696 70.2175 34.5414C70.6822 34.707 71.2583 34.7897 71.9458 34.7897C72.2704 34.7897 72.5982 34.7547 72.9293 34.6847C73.2666 34.6147 73.5881 34.5192 73.8937 34.3982C74.1992 34.2709 74.4825 34.1213 74.7435 33.9494C75.0109 33.7776 75.24 33.5898 75.431 33.3861V25.7949H78.2574V37.0718H75.431V36.1074C74.7371 36.5212 74.0401 36.8172 73.3399 36.9954C72.6396 37.1737 71.9744 37.2628 71.3442 37.2628C70.3129 37.2628 69.4281 37.1387 68.6897 36.8904C67.9576 36.6421 67.3561 36.2825 66.885 35.8114C66.4203 35.334 66.0797 34.7515 65.8633 34.064C65.6469 33.3702 65.5386 32.5808 65.5386 31.696V25.7949Z" fill="#111111"/>
<path d="M50.5991 22.1489H63.948V24.8034H53.626V28.7088H62.3916V31.201H53.626V37.0734H50.5991V22.1489Z" fill="#111111"/>
</svg>
